<?xml version="1.0" encoding="UTF-8" standalone="no"?>
<svg
   xmlns:dc="http://purl.org/dc/elements/1.1/"
   xmlns:cc="http://creativecommons.org/ns#"
   xmlns:rdf="http://www.w3.org/1999/02/22-rdf-syntax-ns#"
   xmlns:svg="http://www.w3.org/2000/svg"
   xmlns="http://www.w3.org/2000/svg"
   xmlns:sodipodi="http://sodipodi.sourceforge.net/DTD/sodipodi-0.dtd"
   xmlns:inkscape="http://www.inkscape.org/namespaces/inkscape"
   inkscape:version="1.0 (4035a4fb49, 2020-05-01)"
   sodipodi:docname="icon-info.svg"
   xml:space="preserve"
   style="enable-background:new 0 0 512 512;"
   viewBox="0 0 512 512"
   y="0px"
   x="0px"
   id="Capa_1"
   version="1.1"><metadata
   id="metadata49"><rdf:RDF><cc:Work
       rdf:about=""><dc:format>image/svg+xml</dc:format><dc:type
         rdf:resource="http://purl.org/dc/dcmitype/StillImage" /></cc:Work></rdf:RDF></metadata><defs
   id="defs47" /><sodipodi:namedview
   inkscape:current-layer="Capa_1"
   inkscape:window-maximized="1"
   inkscape:window-y="-8"
   inkscape:window-x="-8"
   inkscape:cy="378.61305"
   inkscape:cx="225.5047"
   inkscape:zoom="1.2460938"
   showgrid="false"
   id="namedview45"
   inkscape:window-height="847"
   inkscape:window-width="1440"
   inkscape:pageshadow="2"
   inkscape:pageopacity="0"
   guidetolerance="10"
   gridtolerance="10"
   objecttolerance="10"
   borderopacity="1"
   bordercolor="#666666"
   pagecolor="#ffffff" />
<g
   style="fill:#bbbbbb;fill-opacity:1"
   id="g12">
	<g
   style="fill:#bbbbbb;fill-opacity:1"
   id="g10">
		<g
   style="fill:#bbbbbb;fill-opacity:1"
   id="g8">
			<path
   style="fill:#bbbbbb;fill-opacity:1"
   id="path2"
   d="M256.002,182.774c-12.718,0-21.761,5.37-21.761,13.283V303.73c0,6.782,9.044,13.565,21.761,13.565     c12.152,0,22.043-6.783,22.043-13.565V196.057C278.045,188.144,268.154,182.774,256.002,182.774z" />
			<path
   style="fill:#bbbbbb;fill-opacity:1"
   id="path4"
   d="M256.002,116.361c-13,0-23.174,9.326-23.174,20.065c0,10.739,10.174,20.348,23.174,20.348     c12.718,0,22.892-9.609,22.892-20.348C278.894,125.688,268.719,116.361,256.002,116.361z" />
			<path
   style="fill:#bbbbbb;fill-opacity:1"
   id="path6"
   d="M256,0C134.398,0,36,98.348,36,219.873c0,99.231,65.333,181.626,153.417,209.609l50.032,73.747     C243.171,508.715,249.37,512,256,512s12.829-3.285,16.551-8.771l50.032-73.747C410.706,401.486,476,319.061,476,219.873     C476,98.271,377.523,0,256,0z M304.645,393.099c-4.555,1.274-8.51,4.12-11.165,8.033L256,456.376l-37.479-55.243     c-2.656-3.913-6.611-6.76-11.166-8.033C132.377,372.135,76,303.181,76,219.873C76,120.69,156.748,40,256,40     s180,80.69,180,179.873C436,303.264,379.54,372.158,304.645,393.099z" />
		</g>
	</g>
</g>
<g
   id="g14">
</g>
<g
   id="g16">
</g>
<g
   id="g18">
</g>
<g
   id="g20">
</g>
<g
   id="g22">
</g>
<g
   id="g24">
</g>
<g
   id="g26">
</g>
<g
   id="g28">
</g>
<g
   id="g30">
</g>
<g
   id="g32">
</g>
<g
   id="g34">
</g>
<g
   id="g36">
</g>
<g
   id="g38">
</g>
<g
   id="g40">
</g>
<g
   id="g42">
</g>
</svg>
