<?xml version="1.0" encoding="UTF-8" standalone="no"?>
<svg
   xmlns:dc="http://purl.org/dc/elements/1.1/"
   xmlns:cc="http://creativecommons.org/ns#"
   xmlns:rdf="http://www.w3.org/1999/02/22-rdf-syntax-ns#"
   xmlns:svg="http://www.w3.org/2000/svg"
   xmlns="http://www.w3.org/2000/svg"
   xmlns:sodipodi="http://sodipodi.sourceforge.net/DTD/sodipodi-0.dtd"
   xmlns:inkscape="http://www.inkscape.org/namespaces/inkscape"
   inkscape:version="1.0 (4035a4fb49, 2020-05-01)"
   sodipodi:docname="home.svg"
   version="1.1"
   width="512"
   viewBox="0 0 512 512"
   height="512"
   enable-background="new 0 0 512 512"
   id="Layer_1">
  <metadata
     id="metadata9">
    <rdf:RDF>
      <cc:Work
         rdf:about="">
        <dc:format>image/svg+xml</dc:format>
        <dc:type
           rdf:resource="http://purl.org/dc/dcmitype/StillImage" />
      </cc:Work>
    </rdf:RDF>
  </metadata>
  <defs
     id="defs7" />
  <sodipodi:namedview
     inkscape:current-layer="Layer_1"
     inkscape:window-maximized="1"
     inkscape:window-y="-8"
     inkscape:window-x="-8"
     inkscape:cy="442.83554"
     inkscape:cx="225.5047"
     inkscape:zoom="1.2460938"
     showgrid="false"
     id="namedview5"
     inkscape:window-height="847"
     inkscape:window-width="1440"
     inkscape:pageshadow="2"
     inkscape:pageopacity="0"
     guidetolerance="10"
     gridtolerance="10"
     objecttolerance="10"
     borderopacity="1"
     bordercolor="#666666"
     pagecolor="#ffffff" />
  <path
     style="fill:#bd8f12;fill-opacity:1"
     id="path2"
     d="m392 511.963h-272c-66.168 0-120-53.832-120-120v-168.271c0-37.191 17.655-72.86 47.226-95.415l136-103.729c42.849-32.681 102.699-32.681 145.548 0l43.226 32.94v-25.525c1.056-26.536 38.953-26.516 40 0v65.911c0 7.603-4.311 14.548-11.125 17.923-6.814 3.374-14.951 2.592-20.998-2.015l-75.355-57.423c-28.572-21.792-68.474-21.792-97.039-.005l-136 103.729c-19.713 15.035-31.483 38.814-31.483 63.609v168.271c0 44.112 35.888 80 80 80h272c44.112 0 80-35.888 80-80v-168.271c0-25.099-11.637-48.959-31.129-63.827-8.783-6.699-10.472-19.249-3.773-28.031 6.699-8.783 19.25-10.472 28.031-3.773 29.349 22.384 46.871 58.134 46.871 95.631v168.271c0 66.168-53.832 120-120 120zm-176-281c-13.807 0-25 11.193-25 25 1.321 33.17 48.691 33.145 50 0 0-13.808-11.193-25-25-25zm105 24.999c-1.321 33.17-48.691 33.145-50 0 1.321-33.17 48.691-33.144 50 0zm-80 80c-1.321 33.17-48.691 33.145-50 0 1.321-33.17 48.691-33.144 50 0zm80 0c-1.321 33.17-48.691 33.145-50 0 1.321-33.17 48.691-33.144 50 0z" />
</svg>
