<?xml version="1.0" encoding="UTF-8" standalone="no"?>
<svg
   xmlns:dc="http://purl.org/dc/elements/1.1/"
   xmlns:cc="http://creativecommons.org/ns#"
   xmlns:rdf="http://www.w3.org/1999/02/22-rdf-syntax-ns#"
   xmlns:svg="http://www.w3.org/2000/svg"
   xmlns="http://www.w3.org/2000/svg"
   xmlns:sodipodi="http://sodipodi.sourceforge.net/DTD/sodipodi-0.dtd"
   xmlns:inkscape="http://www.inkscape.org/namespaces/inkscape"
   inkscape:version="1.0 (4035a4fb49, 2020-05-01)"
   sodipodi:docname="icon-bin.svg"
   xml:space="preserve"
   style="enable-background:new 0 0 489.7 489.7;"
   viewBox="0 0 489.7 489.7"
   y="0px"
   x="0px"
   id="Capa_1"
   version="1.1"><metadata
   id="metadata83"><rdf:RDF><cc:Work
       rdf:about=""><dc:format>image/svg+xml</dc:format><dc:type
         rdf:resource="http://purl.org/dc/dcmitype/StillImage" /></cc:Work></rdf:RDF></metadata><defs
   id="defs81" /><sodipodi:namedview
   inkscape:current-layer="Capa_1"
   inkscape:window-maximized="1"
   inkscape:window-y="-8"
   inkscape:window-x="-8"
   inkscape:cy="418.1341"
   inkscape:cx="215.68292"
   inkscape:zoom="1.3028384"
   showgrid="false"
   id="namedview79"
   inkscape:window-height="847"
   inkscape:window-width="1440"
   inkscape:pageshadow="2"
   inkscape:pageopacity="0"
   guidetolerance="10"
   gridtolerance="10"
   objecttolerance="10"
   borderopacity="1"
   bordercolor="#666666"
   pagecolor="#ffffff" />
<g
   style="fill:#bbbbbb;fill-opacity:1"
   id="g46">
	<g
   style="fill:#bbbbbb;fill-opacity:1"
   id="g14">
		<g
   style="fill:#bbbbbb;fill-opacity:1"
   id="g12">
			<path
   style="fill:#bbbbbb;fill-opacity:1"
   id="path2"
   d="M411.8,131.7c-9.5,0-17.2,7.7-17.2,17.2v288.2c0,10.1-8.2,18.4-18.4,18.4H113.3c-10.1,0-18.4-8.2-18.4-18.4V148.8     c0-9.5-7.7-17.2-17.1-17.2c-9.5,0-17.2,7.7-17.2,17.2V437c0,29,23.6,52.7,52.7,52.7h262.9c29,0,52.7-23.6,52.7-52.7V148.8     C428.9,139.3,421.2,131.7,411.8,131.7z" />
			<path
   style="fill:#bbbbbb;fill-opacity:1"
   id="path4"
   d="M457.3,75.9H353V56.1C353,25.2,327.8,0,296.9,0H192.7c-31,0-56.1,25.2-56.1,56.1v19.8H32.3c-9.5,0-17.1,7.7-17.1,17.2     s7.7,17.1,17.1,17.1h425c9.5,0,17.2-7.7,17.2-17.1C474.4,83.5,466.8,75.9,457.3,75.9z M170.9,56.1c0-12,9.8-21.8,21.8-21.8h104.2     c12,0,21.8,9.8,21.8,21.8v19.8H170.9V56.1z" />
			<path
   style="fill:#bbbbbb;fill-opacity:1"
   id="path6"
   d="M262,396.6V180.9c0-9.5-7.7-17.1-17.1-17.1s-17.1,7.7-17.1,17.1v215.7c0,9.5,7.7,17.1,17.1,17.1     C254.3,413.7,262,406.1,262,396.6z" />
			<path
   style="fill:#bbbbbb;fill-opacity:1"
   id="path8"
   d="M186.1,396.6V180.9c0-9.5-7.7-17.1-17.2-17.1s-17.1,7.7-17.1,17.1v215.7c0,9.5,7.7,17.1,17.1,17.1     C178.4,413.7,186.1,406.1,186.1,396.6z" />
			<path
   style="fill:#bbbbbb;fill-opacity:1"
   id="path10"
   d="M337.8,396.6V180.9c0-9.5-7.7-17.1-17.1-17.1s-17.1,7.7-17.1,17.1v215.7c0,9.5,7.7,17.1,17.1,17.1     S337.8,406.1,337.8,396.6z" />
		</g>
	</g>
	<g
   style="fill:#bbbbbb;fill-opacity:1"
   id="g16">
	</g>
	<g
   style="fill:#bbbbbb;fill-opacity:1"
   id="g18">
	</g>
	<g
   style="fill:#bbbbbb;fill-opacity:1"
   id="g20">
	</g>
	<g
   style="fill:#bbbbbb;fill-opacity:1"
   id="g22">
	</g>
	<g
   style="fill:#bbbbbb;fill-opacity:1"
   id="g24">
	</g>
	<g
   style="fill:#bbbbbb;fill-opacity:1"
   id="g26">
	</g>
	<g
   style="fill:#bbbbbb;fill-opacity:1"
   id="g28">
	</g>
	<g
   style="fill:#bbbbbb;fill-opacity:1"
   id="g30">
	</g>
	<g
   style="fill:#bbbbbb;fill-opacity:1"
   id="g32">
	</g>
	<g
   style="fill:#bbbbbb;fill-opacity:1"
   id="g34">
	</g>
	<g
   style="fill:#bbbbbb;fill-opacity:1"
   id="g36">
	</g>
	<g
   style="fill:#bbbbbb;fill-opacity:1"
   id="g38">
	</g>
	<g
   style="fill:#bbbbbb;fill-opacity:1"
   id="g40">
	</g>
	<g
   style="fill:#bbbbbb;fill-opacity:1"
   id="g42">
	</g>
	<g
   style="fill:#bbbbbb;fill-opacity:1"
   id="g44">
	</g>
</g>
<g
   id="g48">
</g>
<g
   id="g50">
</g>
<g
   id="g52">
</g>
<g
   id="g54">
</g>
<g
   id="g56">
</g>
<g
   id="g58">
</g>
<g
   id="g60">
</g>
<g
   id="g62">
</g>
<g
   id="g64">
</g>
<g
   id="g66">
</g>
<g
   id="g68">
</g>
<g
   id="g70">
</g>
<g
   id="g72">
</g>
<g
   id="g74">
</g>
<g
   id="g76">
</g>
</svg>
