<?xml version="1.0" encoding="UTF-8" standalone="no"?>
<svg
   xmlns:dc="http://purl.org/dc/elements/1.1/"
   xmlns:cc="http://creativecommons.org/ns#"
   xmlns:rdf="http://www.w3.org/1999/02/22-rdf-syntax-ns#"
   xmlns:svg="http://www.w3.org/2000/svg"
   xmlns="http://www.w3.org/2000/svg"
   xmlns:sodipodi="http://sodipodi.sourceforge.net/DTD/sodipodi-0.dtd"
   xmlns:inkscape="http://www.inkscape.org/namespaces/inkscape"
   inkscape:version="1.0 (4035a4fb49, 2020-05-01)"
   sodipodi:docname="icon-asterisk.svg"
   xml:space="preserve"
   style="enable-background:new 0 0 96.336 96.337;"
   viewBox="0 0 96.336 96.337"
   height="96.337px"
   width="96.336px"
   y="0px"
   x="0px"
   id="Capa_1"
   version="1.1"><metadata
   id="metadata41"><rdf:RDF><cc:Work
       rdf:about=""><dc:format>image/svg+xml</dc:format><dc:type
         rdf:resource="http://purl.org/dc/dcmitype/StillImage" /></cc:Work></rdf:RDF></metadata><defs
   id="defs39" /><sodipodi:namedview
   inkscape:current-layer="Capa_1"
   inkscape:window-maximized="1"
   inkscape:window-y="-8"
   inkscape:window-x="-8"
   inkscape:cy="118.08609"
   inkscape:cx="42.430059"
   inkscape:zoom="6.6225854"
   showgrid="false"
   id="namedview37"
   inkscape:window-height="847"
   inkscape:window-width="1440"
   inkscape:pageshadow="2"
   inkscape:pageopacity="0"
   guidetolerance="10"
   gridtolerance="10"
   objecttolerance="10"
   borderopacity="1"
   bordercolor="#666666"
   pagecolor="#ffffff" />
<g
   style="fill:#bd8f12;fill-opacity:1"
   id="g4">
	<path
   style="fill:#bd8f12;fill-opacity:1"
   id="path2"
   d="M92.456,64.241L66.18,48.168l26.275-16.073c0.452-0.277,0.776-0.722,0.9-1.238s0.038-1.06-0.238-1.512l-7.721-12.621   c-0.575-0.942-1.808-1.239-2.75-0.663L57.564,31.405V2c0-1.104-0.896-2-2-2H40.771c-1.104,0-2,0.896-2,2v29.405L13.688,16.062   c-0.944-0.576-2.174-0.28-2.75,0.663L3.217,29.346c-0.276,0.452-0.362,0.996-0.238,1.512s0.448,0.961,0.9,1.238l26.276,16.072   L3.879,64.241c-0.452,0.276-0.776,0.722-0.9,1.237c-0.124,0.517-0.038,1.061,0.238,1.513l7.721,12.62   c0.576,0.942,1.806,1.24,2.75,0.664l25.083-15.344v29.405c0,1.104,0.896,2,2,2h14.793c1.104,0,2-0.896,2-2V64.932l25.083,15.342   c0.942,0.576,2.175,0.279,2.75-0.662l7.721-12.621c0.276-0.452,0.362-0.996,0.238-1.512C93.233,64.962,92.908,64.518,92.456,64.241   z" />
</g>
<g
   id="g6">
</g>
<g
   id="g8">
</g>
<g
   id="g10">
</g>
<g
   id="g12">
</g>
<g
   id="g14">
</g>
<g
   id="g16">
</g>
<g
   id="g18">
</g>
<g
   id="g20">
</g>
<g
   id="g22">
</g>
<g
   id="g24">
</g>
<g
   id="g26">
</g>
<g
   id="g28">
</g>
<g
   id="g30">
</g>
<g
   id="g32">
</g>
<g
   id="g34">
</g>
</svg>
